<svg xmlns="http://www.w3.org/2000/svg" viewBox="0 0 1920 442.72"><defs><style>.cls-1{fill:#732720;}</style></defs><title>Asset 2</title><g id="Layer_2" data-name="Layer 2"><g id="Layer_1-2" data-name="Layer 1"><path class="cls-1" d="M635.71,186.19a57.43,57.43,0,0,1-23.39,20.37,67.62,67.62,0,0,1-29.73,7.09,75.76,75.76,0,0,1-30-5.73,68.54,68.54,0,0,1-22.93-15.69,71,71,0,0,1-14.79-23.54,83.8,83.8,0,0,1,0-58.55,70.83,70.83,0,0,1,14.79-23.53,68.39,68.39,0,0,1,22.93-15.69,75.76,75.76,0,0,1,30-5.74,67.5,67.5,0,0,1,29.73,7.1,56,56,0,0,1,23.39,21h.9V68.8h20.52V282.45H636.61V186.19ZM531.3,139.42a67.11,67.11,0,0,0,3.62,22.17,53.48,53.48,0,0,0,10.41,18.11,47.43,47.43,0,0,0,16.74,12.07,55.76,55.76,0,0,0,22.64,4.38A52.92,52.92,0,0,0,635,161.9a64,64,0,0,0,0-45,55.69,55.69,0,0,0-11.31-18.1,52.19,52.19,0,0,0-17.2-12.07,53.57,53.57,0,0,0-21.73-4.38,54.16,54.16,0,0,0-22.64,4.53,49.07,49.07,0,0,0-16.74,12.22,53.58,53.58,0,0,0-10.41,18.11A67.13,67.13,0,0,0,531.3,139.42Z"/><path d="M814.05,210q-.62-5.73-.91-12.67t-.3-11.47h-.61q-6,12.38-19.61,20.07A57.28,57.28,0,0,1,764,213.65q-26.85,0-40.28-16t-13.43-42.25V68.8h20.52V147a103.23,103.23,0,0,0,1.81,20.22,42.33,42.33,0,0,0,6.19,15.54,29.51,29.51,0,0,0,11.76,10.11q7.41,3.61,18.56,3.62a39.54,39.54,0,0,0,15.85-3.32A38.9,38.9,0,0,0,798.66,183a50.64,50.64,0,0,0,9.66-17.2q3.61-10.41,3.61-24.59V68.8h20.53V179q0,5.73.29,14.78t.91,16.3Z"/><path d="M1015.32,135.19v4.53a46.82,46.82,0,0,1-.3,5.13H897.93a55,55,0,0,0,4.23,19.92A50.23,50.23,0,0,0,913,181.06a52.21,52.21,0,0,0,16.3,11,50,50,0,0,0,20.22,4.08q16,0,27.61-7.39t17.65-17l15.39,12.06q-12.68,16-27.91,22.94a78,78,0,0,1-32.74,6.94,75.09,75.09,0,0,1-29.12-5.58,68.14,68.14,0,0,1-23.09-15.54A73.61,73.61,0,0,1,882.09,169a77,77,0,0,1-5.58-29.57A78.77,78.77,0,0,1,882,109.84,71.27,71.27,0,0,1,897,86.31a69.32,69.32,0,0,1,22.64-15.55,70.18,70.18,0,0,1,28.06-5.58q16.59,0,29.27,5.58a60.49,60.49,0,0,1,21.12,15.09A64.77,64.77,0,0,1,1010.94,108,82.58,82.58,0,0,1,1015.32,135.19Zm-20.82-6.64q-.91-19.92-12.83-33T947.73,82.38a47.62,47.62,0,0,0-19,3.77,50.33,50.33,0,0,0-15.39,10.26,51.32,51.32,0,0,0-10.56,14.79,47.79,47.79,0,0,0-4.52,17.35Z"/><path d="M1187.93,135.19v4.53a49.44,49.44,0,0,1-.3,5.13H1070.54a55,55,0,0,0,4.23,19.92,50.23,50.23,0,0,0,10.86,16.29,52.21,52.21,0,0,0,16.3,11,50,50,0,0,0,20.21,4.08q16,0,27.61-7.39t17.66-17l15.39,12.06q-12.67,16-27.92,22.94a78,78,0,0,1-32.74,6.94,75.13,75.13,0,0,1-29.12-5.58,68.19,68.19,0,0,1-23.08-15.54A73.61,73.61,0,0,1,1054.7,169a77,77,0,0,1-5.58-29.57,79,79,0,0,1,5.43-29.58,71.45,71.45,0,0,1,15.09-23.53,69.28,69.28,0,0,1,22.63-15.55,70.25,70.25,0,0,1,28.06-5.58q16.61,0,29.27,5.58a60.62,60.62,0,0,1,21.13,15.09A65.11,65.11,0,0,1,1183.56,108,82.84,82.84,0,0,1,1187.93,135.19Zm-20.82-6.64q-.91-19.92-12.83-33t-34-13.13a47.53,47.53,0,0,0-19,3.77,50.49,50.49,0,0,0-15.4,10.26,51.13,51.13,0,0,0-10.56,14.79,47.8,47.8,0,0,0-4.53,17.35Z"/><path d="M1250.39,68.8q.6,5.73.91,12.68c.2,4.63.3,8.44.3,11.46h.6q6-12.36,19.62-20.06a57.25,57.25,0,0,1,28.66-7.7q26.87,0,40.29,16t13.43,42.24V210h-20.52V131.87a103.9,103.9,0,0,0-1.81-20.21,42.38,42.38,0,0,0-6.19-15.55A29.58,29.58,0,0,0,1313.91,86q-7.38-3.63-18.56-3.63a39.62,39.62,0,0,0-15.83,3.32,38.76,38.76,0,0,0-13.73,10.11,50.4,50.4,0,0,0-9.66,17.2q-3.63,10.41-3.63,24.59V210H1232V99.88q0-5.73-.3-14.78t-.9-16.3Z"/><path class="cls-1" d="M1584.45,101.09a39.05,39.05,0,0,0-15-13.42,44.16,44.16,0,0,0-21.27-5.29,55.06,55.06,0,0,0-22.33,4.38,50.57,50.57,0,0,0-17.05,12.07,53,53,0,0,0-10.86,18.1,65.42,65.42,0,0,0-3.78,22.49,64.1,64.1,0,0,0,3.78,22.33,54.5,54.5,0,0,0,10.71,17.95,48.93,48.93,0,0,0,16.89,12.07,54.94,54.94,0,0,0,22.34,4.38q13.58,0,22.93-5.13a46.89,46.89,0,0,0,15.39-13.28l15.4,11.47a67.34,67.34,0,0,1-22.19,17.8q-13.12,6.65-31.53,6.64a82.64,82.64,0,0,1-31.08-5.58,68.65,68.65,0,0,1-23.69-15.54A70.39,70.39,0,0,1,1477.92,169a78.92,78.92,0,0,1-5.44-29.57,79,79,0,0,1,5.44-29.58,70.25,70.25,0,0,1,15.24-23.53,68.67,68.67,0,0,1,23.69-15.55,82.64,82.64,0,0,1,31.08-5.58,73.76,73.76,0,0,1,28.82,6.19,56.5,56.5,0,0,1,23.68,18.25Z"/><path d="M1658.67,14.48a13.39,13.39,0,0,1-4.52,10.42,14.22,14.22,0,0,1-19.92,0,13.39,13.39,0,0,1-4.52-10.42,13.34,13.34,0,0,1,4.52-10.4,14.2,14.2,0,0,1,19.92,0A13.34,13.34,0,0,1,1658.67,14.48ZM1654.45,210h-20.52V68.8h20.52Z"/><path d="M1772.74,86h-39.83v82.37a46.69,46.69,0,0,0,1.51,13,18.39,18.39,0,0,0,4.38,8,14.82,14.82,0,0,0,6.79,3.92,32.09,32.09,0,0,0,8.44,1.06,36,36,0,0,0,8.91-1.21,44.82,44.82,0,0,0,8.9-3.32l.9,17.81a60.92,60.92,0,0,1-11.32,3.16,72.9,72.9,0,0,1-12.82,1.06,51.9,51.9,0,0,1-12.07-1.51,30.43,30.43,0,0,1-11.77-5.73,31.36,31.36,0,0,1-8.9-11.47q-3.48-7.24-3.47-19V86h-29.27V68.8h29.27V29h20.52V68.8h39.83Z"/><path d="M1853.31,188h.6l43.76-119.2H1920l-70.31,177.74q-6.35,16.31-16.14,26.1t-28.22,9.81a93.44,93.44,0,0,1-18.41-1.81l2.11-18.71a47.41,47.41,0,0,0,15.09,2.42q10.56,0,16.6-6.49t10.56-18.56l11.47-29.57L1782.39,68.8h22.94Z"/><path d="M74.63,321.81a26.12,26.12,0,0,0-9.95-8.95,29.57,29.57,0,0,0-14.19-3.52,36.65,36.65,0,0,0-14.88,2.92,33.72,33.72,0,0,0-11.37,8.05A35.26,35.26,0,0,0,17,332.38a43.58,43.58,0,0,0-2.52,15A42.74,42.74,0,0,0,17,362.25a36.24,36.24,0,0,0,7.14,12,32.51,32.51,0,0,0,11.27,8,36.49,36.49,0,0,0,14.88,2.92q9.06,0,15.3-3.42a31.43,31.43,0,0,0,10.25-8.85l10.26,7.64a44.86,44.86,0,0,1-14.78,11.87q-8.76,4.43-21,4.43a55.13,55.13,0,0,1-20.72-3.73,45.8,45.8,0,0,1-15.79-10.36A46.88,46.88,0,0,1,3.62,367.08a55.5,55.5,0,0,1,0-39.43A46.88,46.88,0,0,1,13.78,312,45.8,45.8,0,0,1,29.57,301.6a55.13,55.13,0,0,1,20.72-3.72A49,49,0,0,1,69.5,302a37.69,37.69,0,0,1,15.8,12.17Z"/><path d="M201,347.36a51.15,51.15,0,0,1-3.72,19.72A46.45,46.45,0,0,1,171,393.13a54,54,0,0,1-20.32,3.73,53.47,53.47,0,0,1-20.12-3.73,46.89,46.89,0,0,1-15.89-10.36,47.38,47.38,0,0,1-10.36-15.69,54.1,54.1,0,0,1,0-39.43A47.38,47.38,0,0,1,114.67,312a46.89,46.89,0,0,1,15.89-10.36,53.47,53.47,0,0,1,20.12-3.72A54,54,0,0,1,171,301.6a46.45,46.45,0,0,1,26.25,26A51.17,51.17,0,0,1,201,347.36Zm-14.48,0A43,43,0,0,0,184,332.58a36.48,36.48,0,0,0-7.13-12.07,33.9,33.9,0,0,0-11.27-8.15,35.63,35.63,0,0,0-14.89-3,34.86,34.86,0,0,0-14.78,3,33.91,33.91,0,0,0-11.17,8.15,36,36,0,0,0-7.14,12.07,44.63,44.63,0,0,0,0,29.57,36,36,0,0,0,7.14,12.07,32.69,32.69,0,0,0,11.17,8,35.77,35.77,0,0,0,14.78,2.92,36.57,36.57,0,0,0,14.89-2.92,32.7,32.7,0,0,0,11.27-8A36.48,36.48,0,0,0,184,362.15,42.94,42.94,0,0,0,186.49,347.36Z"/><path d="M256.2,303a34.79,34.79,0,0,1,18.6-5.13,42,42,0,0,1,7.95.8,25.4,25.4,0,0,1,8,3.12,29.22,29.22,0,0,1,7.25,6.14,34.37,34.37,0,0,1,5.73,9.85A35.35,35.35,0,0,1,317,303q8.34-5.13,19.82-5.13,17.89,0,26.85,10.66t9,28.16v57.74H358.9V342.33q0-14.88-5.54-23.93t-18.81-9.06a24.42,24.42,0,0,0-12.57,3,24,24,0,0,0-8.25,7.95,34.85,34.85,0,0,0-4.52,11.16,57.65,57.65,0,0,0-1.41,12.88v50.09H294.11V339.52a71.2,71.2,0,0,0-1-12.47,26.14,26.14,0,0,0-3.52-9.56,16.46,16.46,0,0,0-6.94-6,26.2,26.2,0,0,0-11.27-2.12,23.7,23.7,0,0,0-9.75,2.21,25.64,25.64,0,0,0-8.86,6.74,34.92,34.92,0,0,0-6.33,11.47,50,50,0,0,0-2.41,16.4v48.28H230.34V321q0-3.83-.2-9.85c-.13-4-.34-7.65-.6-10.87h13.08c.26,2.55.47,5.36.6,8.45s.2,5.63.2,7.64h.4A32,32,0,0,1,256.2,303Z"/><path d="M421.66,442.72H408V300.29h13.68v16.3h.6a37.43,37.43,0,0,1,15.6-14,45.11,45.11,0,0,1,19.81-4.72,50.42,50.42,0,0,1,20,3.82A45.51,45.51,0,0,1,493,312.16a47.2,47.2,0,0,1,9.86,15.69,55.71,55.71,0,0,1,0,39A47.2,47.2,0,0,1,493,382.57,45.51,45.51,0,0,1,477.68,393a50.42,50.42,0,0,1-20,3.83,45,45,0,0,1-19.81-4.74,38.19,38.19,0,0,1-15.6-13.57h-.6Zm70.21-95.36a44.66,44.66,0,0,0-2.42-14.78,35.87,35.87,0,0,0-6.93-12.07,32.81,32.81,0,0,0-11.17-8.15,38.31,38.31,0,0,0-29.58-.1,34.9,34.9,0,0,0-11.46,8.05,36.92,36.92,0,0,0-7.54,12.07,42.64,42.64,0,0,0,0,30,35.37,35.37,0,0,0,33.49,22.84,37.07,37.07,0,0,0,15.09-2.92,31.67,31.67,0,0,0,11.17-8,35.87,35.87,0,0,0,6.93-12.07A44.63,44.63,0,0,0,491.87,347.36Z"/><path d="M629.27,347.36a51.33,51.33,0,0,1-3.72,19.72,46.45,46.45,0,0,1-26.25,26.05A54,54,0,0,1,579,396.86a53.43,53.43,0,0,1-20.12-3.73,46.45,46.45,0,0,1-26.25-26.05,54,54,0,0,1,0-39.43,46.45,46.45,0,0,1,26.25-26A53.43,53.43,0,0,1,579,297.88a54,54,0,0,1,20.32,3.72,46.45,46.45,0,0,1,26.25,26A51.36,51.36,0,0,1,629.27,347.36Zm-14.48,0a43,43,0,0,0-2.52-14.78,36.16,36.16,0,0,0-7.14-12.07,33.86,33.86,0,0,0-11.26-8.15,35.63,35.63,0,0,0-14.89-3,34.93,34.93,0,0,0-14.79,3A34,34,0,0,0,553,320.51a36,36,0,0,0-7.14,12.07,44.63,44.63,0,0,0,0,29.57A36,36,0,0,0,553,374.22a32.74,32.74,0,0,0,11.16,8A35.85,35.85,0,0,0,579,385.19a36.57,36.57,0,0,0,14.89-2.92,32.66,32.66,0,0,0,11.26-8,36.16,36.16,0,0,0,7.14-12.07A42.94,42.94,0,0,0,614.79,347.36Z"/><path d="M708.73,322.62a24,24,0,0,0-9.15-9.55,26.34,26.34,0,0,0-14-3.73,33,33,0,0,0-7.24.81,19.68,19.68,0,0,0-6.44,2.61,14.21,14.21,0,0,0-4.53,4.63,12.54,12.54,0,0,0-1.7,6.64,11.38,11.38,0,0,0,5.43,10.16q5.42,3.53,17.09,5.93,16.71,3.42,24.65,10t7.94,17.6a26,26,0,0,1-11.26,22.64,32.67,32.67,0,0,1-11.37,5,54.71,54.71,0,0,1-12.77,1.52,50.93,50.93,0,0,1-20.72-4.43,38.37,38.37,0,0,1-16.5-13.88L659,370.5a30.79,30.79,0,0,0,26.16,14.69,42.8,42.8,0,0,0,8.45-.81,19.22,19.22,0,0,0,7-2.82,14.42,14.42,0,0,0,6.63-12.87q0-7.44-7.13-11.16t-20.63-6.95c-2.81-.67-5.8-1.51-8.95-2.51a30.71,30.71,0,0,1-8.75-4.43,23.89,23.89,0,0,1-6.64-7.34,21.48,21.48,0,0,1-2.61-11.06,25.28,25.28,0,0,1,2.82-12.38,24.48,24.48,0,0,1,7.54-8.44,33.65,33.65,0,0,1,10.76-4.94,48.35,48.35,0,0,1,12.47-1.6,43.86,43.86,0,0,1,19.12,4.42,30.89,30.89,0,0,1,13.88,12.47Z"/><path d="M833.66,344.55v3a32.16,32.16,0,0,1-.2,3.42H755.4a36.57,36.57,0,0,0,2.82,13.28,33.53,33.53,0,0,0,7.25,10.86,34.76,34.76,0,0,0,10.86,7.34,35.93,35.93,0,0,0,31.88-2.21A36.92,36.92,0,0,0,820,368.89l10.26,8.05q-8.44,10.67-18.61,15.29a52.11,52.11,0,0,1-21.83,4.63,50.1,50.1,0,0,1-19.41-3.73A45.36,45.36,0,0,1,755,382.77a49.14,49.14,0,0,1-10.16-15.69,51.33,51.33,0,0,1-3.72-19.72,52.67,52.67,0,0,1,3.62-19.71A47.74,47.74,0,0,1,754.8,312a46.13,46.13,0,0,1,15.09-10.36,46.82,46.82,0,0,1,18.71-3.72,48,48,0,0,1,19.51,3.72,40,40,0,0,1,14.08,10.06,43.2,43.2,0,0,1,8.56,14.78A55.23,55.23,0,0,1,833.66,344.55Zm-13.88-4.43q-.6-13.28-8.55-22t-22.63-8.75a31.65,31.65,0,0,0-12.68,2.52,33.57,33.57,0,0,0-10.26,6.84,34.17,34.17,0,0,0-7,9.85,32,32,0,0,0-3,11.57Z"/><path d="M862.83,311.16c-.14-4-.33-7.65-.6-10.87H875.3c.27,2.55.47,5.36.61,8.45s.2,5.63.2,7.64h.4A32.6,32.6,0,0,1,888.58,303a33,33,0,0,1,18.11-5.13c1.74,0,3.32.06,4.72.19a26.69,26.69,0,0,1,4.33.81L913.93,312a24.48,24.48,0,0,0-4-.8,39.6,39.6,0,0,0-5.63-.41,27.94,27.94,0,0,0-10.47,2,22.42,22.42,0,0,0-8.75,6.32,33.05,33.05,0,0,0-6,11,49.65,49.65,0,0,0-2.32,16.15v48.17H863V321Q863,317.18,862.83,311.16Z"/><path d="M985.55,322.62a24,24,0,0,0-9.16-9.55,26.34,26.34,0,0,0-14-3.73,33,33,0,0,0-7.24.81,19.68,19.68,0,0,0-6.44,2.61,14.21,14.21,0,0,0-4.53,4.63,12.64,12.64,0,0,0-1.71,6.64,11.38,11.38,0,0,0,5.43,10.16c3.63,2.35,9.32,4.32,17.11,5.93q16.69,3.42,24.64,10t8,17.6a26.05,26.05,0,0,1-11.27,22.64,32.75,32.75,0,0,1-11.37,5,54.71,54.71,0,0,1-12.77,1.52,51,51,0,0,1-20.73-4.43A38.4,38.4,0,0,1,925,378.55l10.86-8.05A30.79,30.79,0,0,0,962,385.19a42.8,42.8,0,0,0,8.45-.81,19.22,19.22,0,0,0,7-2.82,14.4,14.4,0,0,0,6.64-12.87q0-7.44-7.15-11.16t-20.62-6.95c-2.82-.67-5.79-1.51-9-2.51a30.71,30.71,0,0,1-8.75-4.43A23.89,23.89,0,0,1,932,336.3a21.48,21.48,0,0,1-2.61-11.06,25.39,25.39,0,0,1,2.81-12.38,24.71,24.71,0,0,1,7.55-8.44,33.55,33.55,0,0,1,10.76-4.94,48.29,48.29,0,0,1,12.47-1.6,43.81,43.81,0,0,1,19.11,4.42A30.81,30.81,0,0,1,996,314.77Z"/><path d="M1142.86,321.81a26.08,26.08,0,0,0-10-8.95,29.51,29.51,0,0,0-14.18-3.52,36.65,36.65,0,0,0-14.88,2.92,33.86,33.86,0,0,0-11.38,8.05,35.23,35.23,0,0,0-7.23,12.07,43.58,43.58,0,0,0-2.52,15,42.74,42.74,0,0,0,2.52,14.89,36.24,36.24,0,0,0,7.14,12,32.57,32.57,0,0,0,11.26,8,36.57,36.57,0,0,0,14.89,2.92q9,0,15.29-3.42a31.47,31.47,0,0,0,10.26-8.85l10.26,7.64a44.9,44.9,0,0,1-14.79,11.87q-8.74,4.43-21,4.43a55.13,55.13,0,0,1-20.72-3.73A45.61,45.61,0,0,1,1082,382.77a46.58,46.58,0,0,1-10.16-15.69,55.35,55.35,0,0,1,0-39.43A46.58,46.58,0,0,1,1082,312a45.61,45.61,0,0,1,15.79-10.36,55.13,55.13,0,0,1,20.72-3.72,49.06,49.06,0,0,1,19.21,4.12,37.66,37.66,0,0,1,15.79,12.17Z"/><path d="M1269.2,347.36a51.33,51.33,0,0,1-3.72,19.72,47.54,47.54,0,0,1-10.36,15.69,47,47,0,0,1-15.89,10.36,54.07,54.07,0,0,1-20.32,3.73,53.39,53.39,0,0,1-20.12-3.73,46.7,46.7,0,0,1-15.89-10.36,47.41,47.41,0,0,1-10.37-15.69,54.1,54.1,0,0,1,0-39.43A47.41,47.41,0,0,1,1182.9,312a46.7,46.7,0,0,1,15.89-10.36,53.39,53.39,0,0,1,20.12-3.72,54.06,54.06,0,0,1,20.32,3.72A47,47,0,0,1,1255.12,312a47.54,47.54,0,0,1,10.36,15.69A51.36,51.36,0,0,1,1269.2,347.36Zm-14.48,0a43,43,0,0,0-2.52-14.78,36.33,36.33,0,0,0-7.14-12.07,33.86,33.86,0,0,0-11.26-8.15,35.69,35.69,0,0,0-14.89-3,34.9,34.9,0,0,0-14.79,3,34.11,34.11,0,0,0-11.17,8.15,36,36,0,0,0-7.13,12.07,44.47,44.47,0,0,0,0,29.57,36,36,0,0,0,7.13,12.07,32.88,32.88,0,0,0,11.17,8,35.82,35.82,0,0,0,14.79,2.92,36.64,36.64,0,0,0,14.89-2.92,32.66,32.66,0,0,0,11.26-8,36.33,36.33,0,0,0,7.14-12.07A42.94,42.94,0,0,0,1254.72,347.36Z"/><path d="M1312.65,394.44H1299V242.35h13.68Z"/><path d="M1363.34,394.44h-13.68V242.35h13.68Z"/><path d="M1485.66,344.55v3a32.16,32.16,0,0,1-.2,3.42H1407.4a36.57,36.57,0,0,0,2.82,13.28,33.66,33.66,0,0,0,7.24,10.86,35,35,0,0,0,10.86,7.34,35.95,35.95,0,0,0,31.89-2.21A36.92,36.92,0,0,0,1472,368.89l10.26,8.05q-8.45,10.67-18.61,15.29a52.14,52.14,0,0,1-21.83,4.63,50.1,50.1,0,0,1-19.41-3.73A45.36,45.36,0,0,1,1407,382.77a49,49,0,0,1-10.16-15.69,51.33,51.33,0,0,1-3.72-19.72,52.67,52.67,0,0,1,3.62-19.71A47.74,47.74,0,0,1,1406.8,312a46.19,46.19,0,0,1,15.08-10.36,46.9,46.9,0,0,1,18.72-3.72,48,48,0,0,1,19.51,3.72,40.11,40.11,0,0,1,14.08,10.06,43,43,0,0,1,8.55,14.78A55,55,0,0,1,1485.66,344.55Zm-13.89-4.43q-.58-13.28-8.54-22t-22.63-8.75a31.65,31.65,0,0,0-12.68,2.52,33.45,33.45,0,0,0-10.26,6.84,34,34,0,0,0-7,9.85,31.79,31.79,0,0,0-3,11.57Z"/><path d="M1582.83,321.81a26,26,0,0,0-10-8.95,29.47,29.47,0,0,0-14.17-3.52,36.73,36.73,0,0,0-14.89,2.92,33.72,33.72,0,0,0-11.37,8.05,35.41,35.41,0,0,0-7.24,12.07,43.58,43.58,0,0,0-2.52,15,42.74,42.74,0,0,0,2.52,14.89,36.58,36.58,0,0,0,7.14,12,32.61,32.61,0,0,0,11.27,8,36.49,36.49,0,0,0,14.88,2.92q9.06,0,15.29-3.42a31.37,31.37,0,0,0,10.26-8.85l10.26,7.64a44.86,44.86,0,0,1-14.78,11.87q-8.76,4.43-21,4.43a55.13,55.13,0,0,1-20.72-3.73A45.8,45.8,0,0,1,1522,382.77a46.88,46.88,0,0,1-10.16-15.69,55.5,55.5,0,0,1,0-39.43A46.88,46.88,0,0,1,1522,312a45.8,45.8,0,0,1,15.79-10.36,55.13,55.13,0,0,1,20.72-3.72A49.11,49.11,0,0,1,1577.7,302a37.66,37.66,0,0,1,15.79,12.17Z"/><path d="M1658.06,311.76h-26.55v54.92a31.28,31.28,0,0,0,1,8.65,12.2,12.2,0,0,0,2.92,5.33,9.82,9.82,0,0,0,4.52,2.61,21.13,21.13,0,0,0,5.63.71,23.65,23.65,0,0,0,5.94-.81,29.49,29.49,0,0,0,5.93-2.21l.6,11.87a40.22,40.22,0,0,1-7.54,2.11,48.4,48.4,0,0,1-8.54.7,34.68,34.68,0,0,1-8-1,20.35,20.35,0,0,1-7.85-3.82,21,21,0,0,1-5.93-7.65q-2.33-4.82-2.32-12.67V311.76h-19.51V300.29h19.51V273.74h13.68v26.55h26.55Z"/><path d="M1696.09,264.08a8.94,8.94,0,0,1-3,6.94,9.46,9.46,0,0,1-13.28,0,9.48,9.48,0,0,1,0-13.88,9.46,9.46,0,0,1,13.28,0A8.92,8.92,0,0,1,1696.09,264.08Zm-2.82,130.36h-13.68V300.29h13.68Z"/><path d="M1768.31,394.44h-15.09l-38.42-94.15h15.29L1760.66,380h.4l30.78-79.67h14.69Z"/><path d="M1913.56,344.55v3a32.29,32.29,0,0,1-.21,3.42h-78a36.57,36.57,0,0,0,2.82,13.28,33.34,33.34,0,0,0,7.24,10.86,34.87,34.87,0,0,0,10.86,7.34,35.95,35.95,0,0,0,31.89-2.21,36.88,36.88,0,0,0,11.76-11.37l10.26,8.05q-8.45,10.67-18.61,15.29a52,52,0,0,1-21.82,4.63,50.06,50.06,0,0,1-19.41-3.73,45.36,45.36,0,0,1-15.39-10.36,48.8,48.8,0,0,1-10.16-15.69,51.33,51.33,0,0,1-3.72-19.72,52.47,52.47,0,0,1,3.62-19.71,47.55,47.55,0,0,1,10-15.69,46.17,46.17,0,0,1,15.1-10.36,46.77,46.77,0,0,1,18.7-3.72A48,48,0,0,1,1888,301.6a40.2,40.2,0,0,1,14.08,10.06,43.34,43.34,0,0,1,8.55,14.78A55.23,55.23,0,0,1,1913.56,344.55Zm-13.88-4.43q-.62-13.28-8.55-22t-22.64-8.75a31.6,31.6,0,0,0-12.67,2.52,33.45,33.45,0,0,0-10.26,6.84,34,34,0,0,0-7,9.85,32,32,0,0,0-3,11.57Z"/></g></g></svg>